<?xml version="1.0" encoding="utf-8"?>
<!-- Generator: Adobe Illustrator 22.0.0, SVG Export Plug-In . SVG Version: 6.00 Build 0)  -->
<svg version="1.1" id="图层_1" xmlns="http://www.w3.org/2000/svg" xmlns:xlink="http://www.w3.org/1999/xlink" x="0px" y="0px"
	 viewBox="0 0 1024 1024" style="enable-background:new 0 0 1024 1024;" xml:space="preserve">
<style type="text/css">
	.st0{fill:#FCFCFC;}
	.st1{fill:#3EA3E6;}
	.st2{fill:url(#SVGID_1_);}
	.st3{fill:#99CB6B;}
</style>
<path class="st0" d="M773.3,1024H250.7C112.8,1024,0,911.2,0,773.3V250.7C0,112.8,112.8,0,250.7,0h522.7
	C911.2,0,1024,112.8,1024,250.7v522.7C1024,911.2,911.2,1024,773.3,1024z"/>
<path class="st1" d="M280.1,796.8L572,666.9c20.1-15.4,26.9-42.5,16.8-64.9c-10.8-23.8-38.1-36.5-64-29.1l-160.7,68.9L280.1,796.8z"
	/>
<linearGradient id="SVGID_1_" gradientUnits="userSpaceOnUse" x1="456.4126" y1="399.7614" x2="899.0594" y2="655.3237">
	<stop  offset="9.243305e-07" style="stop-color:#48C2A5"/>
	<stop  offset="1" style="stop-color:#43A6E9"/>
</linearGradient>
<path class="st2" d="M593.9,256.4l242.9,456.1c10.7,31.1-0.3,64.1-23.5,78.9c-29.4,18.7-76.1,6.7-95.3-32.4L494.3,334.1L593.9,256.4
	z"/>
<path class="st3" d="M439.9,260.4c3.6-5.6,9.6-13.5,19-20.7c18.4-14.3,37.6-16.7,45-17.7c46.8-5.9,85,29.6,90,34.4L295.5,788.7
	c-25.2,17.8-58,18.6-81.2,2.6c-28.7-19.7-38.3-62-18.5-96.2c78-139.8,156-279.5,233.9-419.3L439.9,260.4z"/>
</svg>
